HIERARCHY
ROOT Hips
{
	OFFSET 0.000000 88.474243 0.000000
	CHANNELS 6 Xposition Yposition Zposition Zrotation Yrotation Xrotation 
	JOINT Hips_Spine
	{
		OFFSET 0.000000 0.000000 0.000000
		CHANNELS 3 Zrotation Yrotation Xrotation
		JOINT Spine
		{
			OFFSET 0.005100 8.711998 -0.691000
			CHANNELS 3 Zrotation Yrotation Xrotation
			JOINT Spine1
			{
				OFFSET -0.009200 8.660301 -1.275000
				CHANNELS 3 Zrotation Yrotation Xrotation
				JOINT Spine2
				{
					OFFSET 0.006300 9.852501 -1.857000
					CHANNELS 3 Zrotation Yrotation Xrotation
					JOINT Spine2_Neck
					{
						OFFSET 0.000000 0.000000 0.000000
						CHANNELS 3 Zrotation Yrotation Xrotation
						JOINT Neck
						{
							OFFSET 0.016300 11.420799 -0.263300
							CHANNELS 3 Zrotation Yrotation Xrotation
							End Site #name: Head
							{
								OFFSET -0.019200 9.262405 2.362500
							}
						}
					}
					JOINT Spine2_LeftShoulder
					{
						OFFSET 0.000000 0.000000 0.000000
						CHANNELS 3 Zrotation Yrotation Xrotation
						JOINT LeftShoulder
						{
							OFFSET 5.616900 6.732201 -0.345700
							CHANNELS 3 Zrotation Yrotation Xrotation
							JOINT LeftArm
							{
								OFFSET 10.664888 -0.183372 -2.440700
								CHANNELS 3 Zrotation Yrotation Xrotation
								JOINT LeftForeArm
								{
									OFFSET 27.459126 0.000000 0.000000
									CHANNELS 3 Zrotation Yrotation Xrotation
									End Site #name: LeftHand
									{
										OFFSET 21.306858 0.000000 0.000000
									}
								}
							}
						}
					}
					JOINT Spine2_RightShoulder
					{
						OFFSET 0.000000 0.000000 0.000000
						CHANNELS 3 Zrotation Yrotation Xrotation
						JOINT RightShoulder
						{
							OFFSET -5.580300 6.737503 -0.344400
							CHANNELS 3 Zrotation Yrotation Xrotation
							JOINT RightArm
							{
								OFFSET -10.679335 -0.188484 -2.383900
								CHANNELS 3 Zrotation Yrotation Xrotation
								JOINT RightForeArm
								{
									OFFSET -27.503529 0.000000 0.000000
									CHANNELS 3 Zrotation Yrotation Xrotation
									End Site #name: RightHand
									{
										OFFSET -21.306808 0.000000 0.000000
									}
								}
							}
						}
					}
				}
			}
		}
	}
	JOINT Hips_LeftUpLeg
	{
		OFFSET 0.000000 0.000000 0.000000
		CHANNELS 3 Zrotation Yrotation Xrotation
		JOINT LeftUpLeg
		{
			OFFSET 6.857700 -6.739601 0.312100
			CHANNELS 3 Zrotation Yrotation Xrotation
			JOINT LeftLeg
			{
				OFFSET -0.367590 -34.731552 -4.572400
				CHANNELS 3 Zrotation Yrotation Xrotation
				End Site #name: LeftFoot
				{
					OFFSET 0.367590 -34.656704 -6.067400
				}
			}
		}
	}
	JOINT Hips_RightUpLeg
	{
		OFFSET 0.000000 0.000000 0.000000
		CHANNELS 3 Zrotation Yrotation Xrotation
		JOINT RightUpLeg
		{
			OFFSET -6.876100 -6.733299 0.301000
			CHANNELS 3 Zrotation Yrotation Xrotation
			JOINT RightLeg
			{
				OFFSET 0.347353 -34.795158 -4.515900
				CHANNELS 3 Zrotation Yrotation Xrotation
				End Site #name: RightFoot
				{
					OFFSET -0.347353 -34.589367 -6.070300
				}
			}
		}
	}
}
MOTION
Frames: 18
Frame Time: 0.041667
1.207636 0.698682 -1.828639 -0.630383 22.461345 -7.069961 -0.000000 0.000000 -0.000000 -3.417236 -1.335426 -2.545163 2.193366 -1.641277 -4.170576 0.000000 0.000000 0.000000 2.531376 -1.172591 -3.912056 2.289839 -4.415534 -1.565051 1.415028 -1.362697 -4.222286 -20.495554 0.769178 8.608675 -52.117603 11.786319 1.994906 -0.472883 -22.161848 6.483545 1.499979 -1.355169 -1.902684 7.593751 6.843315 1.607687 62.882861 0.307454 -8.976001 0.600462 46.203699 -0.669062 0.000000 -0.000000 -0.000000 -7.920505 23.560487 -2.665457 -0.817660 2.399739 17.931873 0.000000 0.000000 0.000000 -6.052056 2.011721 -16.812138 3.684007 -4.979221 14.524755 
1.024636 0.699328 -1.911997 -1.161007 23.692988 -7.499930 -0.000000 0.000000 -0.000000 -2.496655 -1.392191 -3.223134 2.414839 -1.653884 -4.164805 0.000000 0.000000 0.000000 2.697850 -1.114254 -3.882017 2.130344 -4.439462 -1.308720 1.639847 -1.315335 -4.138363 -19.886932 0.756208 8.738391 -52.931765 12.490295 1.508957 -0.494394 -22.520672 6.401504 1.704105 -1.308244 -1.923711 7.784497 6.941461 1.663474 62.782460 0.100423 -8.891848 0.604788 46.202203 -0.674473 0.000000 -0.000000 -0.000000 -7.299459 23.857247 -2.751063 -0.872266 2.359363 18.312067 0.000000 0.000000 0.000000 -5.250608 2.363279 -17.003470 3.883408 -5.243932 14.601166 
0.866409 0.695462 -1.990862 -1.677368 25.165058 -7.929821 -0.000000 0.000000 -0.000000 -1.580624 -1.427295 -3.860290 2.635345 -1.665816 -4.119537 0.000000 0.000000 0.000000 2.858909 -1.056223 -3.831947 1.996453 -4.478980 -0.994201 1.864638 -1.265425 -4.032849 -19.348925 0.711469 8.822548 -53.698989 13.252034 1.137173 -0.524192 -22.951829 6.300606 1.908176 -1.260452 -1.937122 8.013796 7.052016 1.722799 62.701298 -0.083054 -8.834431 0.611491 46.250014 -0.680260 0.000000 -0.000000 -0.000000 -6.721374 24.104777 -2.757394 -0.930649 2.308543 18.665478 0.000000 0.000000 0.000000 -4.473506 2.779187 -17.136003 4.064213 -5.498106 14.613757 
0.744175 0.686509 -2.070369 -2.162200 26.748905 -8.338581 -0.000000 0.000000 0.000000 -0.663035 -1.425857 -4.444259 2.845141 -1.671687 -4.045388 0.000000 0.000000 0.000000 3.014243 -0.998592 -3.764224 1.904400 -4.523391 -0.635694 2.085174 -1.216863 -3.907571 -18.853666 0.606740 8.881306 -54.410792 13.970058 0.749691 -0.552761 -23.392031 6.203087 2.106171 -1.211479 -1.936808 8.265957 7.171171 1.781984 62.641039 -0.242149 -8.813219 0.621152 46.330694 -0.681754 0.000000 -0.000000 -0.000000 -6.181029 24.264765 -2.625168 -1.042299 2.255810 18.911212 0.000000 -0.000000 0.000000 -3.739367 3.248573 -17.198512 4.236876 -5.747205 14.562052 
0.668998 0.677167 -2.149535 -2.570326 28.087505 -8.713012 -0.000000 -0.000000 0.000000 0.144731 -1.406381 -4.958403 3.042845 -1.669539 -3.944161 0.000000 0.000000 0.000000 3.157345 -0.944038 -3.684614 1.852805 -4.557244 -0.262994 2.280785 -1.166175 -3.763528 -18.404269 0.469627 8.905931 -55.071628 14.603794 0.420366 -0.578510 -23.791561 6.111004 2.290735 -1.161153 -1.922619 8.531389 7.296991 1.840388 62.604425 -0.443096 -8.837457 0.631738 46.429656 -0.679596 0.000000 -0.000000 -0.000000 -5.626403 24.333760 -2.159140 -1.202571 2.246844 18.843977 0.000000 -0.000000 0.000000 -3.096117 3.762361 -17.217009 4.427584 -5.990296 14.446787 
0.646733 0.668470 -2.230017 -2.854686 28.828697 -8.997872 -0.000000 -0.000000 0.000000 0.846018 -1.391502 -5.301284 3.220451 -1.665022 -3.823355 0.000000 0.000000 0.000000 3.285530 -0.891556 -3.592690 1.805866 -4.582464 0.064230 2.451230 -1.115176 -3.607151 -17.997710 0.316798 8.911233 -55.699175 15.171341 0.126246 -0.604302 -24.158692 6.020005 2.457620 -1.109241 -1.894991 8.802655 7.430218 1.896775 62.578351 -0.676922 -8.878507 0.648743 46.644503 -0.673904 0.000000 -0.000000 -0.000000 -5.127456 24.375004 -1.540308 -1.419814 2.217131 18.587804 0.000000 -0.000000 0.000000 -2.563421 4.362938 -17.254942 4.621048 -6.228933 14.354908 
0.681582 0.661679 -2.312470 -2.980901 28.918641 -9.166385 -0.000000 -0.000000 0.000000 1.432223 -1.392908 -5.557482 3.362663 -1.661239 -3.696220 0.000000 0.000000 0.000000 3.395309 -0.844619 -3.487101 1.762799 -4.595156 0.366310 2.598587 -1.070741 -3.448926 -17.633548 0.178493 8.898687 -56.263225 15.618137 -0.177332 -0.625794 -24.490744 5.934652 2.603273 -1.060540 -1.859557 9.036411 7.547972 1.947469 62.543377 -0.845774 -8.867799 0.668744 46.991806 -0.662009 0.000000 -0.000000 -0.000000 -4.732126 24.338594 -0.914800 -1.717700 2.073279 18.350147 0.000000 -0.000000 0.000000 -2.149134 5.070210 -17.323223 4.819161 -6.429252 14.330153 
0.774684 0.656250 -2.396263 -2.958629 28.392740 -9.224326 -0.000000 -0.000000 0.000000 1.858177 -1.404805 -5.687846 3.469875 -1.659672 -3.564395 0.000000 0.000000 0.000000 3.484870 -0.808198 -3.379287 1.743935 -4.507507 0.577855 2.723676 -1.037187 -3.300088 -17.324938 0.058184 8.859412 -56.719124 15.890531 -0.545158 -0.639948 -24.750124 5.863985 2.725248 -1.021714 -1.815891 9.219361 7.645446 1.988176 62.507235 -0.991589 -8.821549 0.688542 47.342960 -0.649497 0.000000 -0.000000 -0.000000 -4.473343 24.226690 -0.291435 -2.054656 1.884746 18.136694 0.000000 -0.000000 0.000000 -1.839741 5.855791 -17.417011 5.070429 -6.469264 14.390120 
0.921218 0.651433 -2.479692 -2.812259 27.265987 -9.194176 -0.000000 -0.000000 0.000000 2.146513 -1.448478 -5.746740 3.564657 -1.665968 -3.424126 0.000000 0.000000 0.000000 3.561208 -0.783447 -3.268194 1.741016 -4.345298 0.749284 2.831844 -1.018409 -3.161439 -17.088047 -0.051691 8.798879 -57.144673 16.042830 -0.811069 -0.655923 -24.949311 5.802162 2.818722 -1.000858 -1.761787 9.331442 7.725603 2.017245 62.468755 -1.122708 -8.748365 0.709531 47.647448 -0.634728 0.000000 -0.000000 -0.000000 -4.337408 24.049099 0.375124 -2.388193 1.689797 17.815154 0.000000 -0.000000 0.000000 -1.612225 6.663494 -17.535317 5.295873 -6.472894 14.554459 
1.119360 0.647120 -2.562092 -2.566853 25.523561 -9.089730 -0.000000 -0.000000 0.000000 2.353461 -1.532158 -5.772022 3.649537 -1.687592 -3.284947 0.000000 0.000000 0.000000 3.625454 -0.773771 -3.157246 1.723314 -4.181247 0.904105 2.931569 -1.015673 -3.035971 -16.929799 -0.135560 8.715857 -57.490830 16.086686 -0.926203 -0.667476 -25.100397 5.732149 2.901949 -1.001785 -1.710237 9.381939 7.773944 2.031469 62.422257 -1.237243 -8.648810 0.729215 47.867737 -0.621043 0.000000 -0.000000 -0.000000 -4.278786 23.870063 1.011917 -2.691405 1.509228 17.606462 0.000000 -0.000000 0.000000 -1.453735 7.433475 -17.692680 5.491585 -6.436423 14.823294 
1.366190 0.643345 -2.643170 -2.269299 23.463748 -8.941571 -0.000000 -0.000000 0.000000 2.513104 -1.654712 -5.803958 3.731927 -1.719286 -3.157117 0.000000 0.000000 0.000000 3.687937 -0.775243 -3.040094 1.698748 -3.979757 1.046986 3.031747 -1.024978 -2.921988 -16.848065 -0.194205 8.615401 -57.770757 16.038833 -0.940955 -0.674012 -25.141516 5.665949 2.984016 -1.023504 -1.657316 9.370533 7.800266 2.033917 62.375407 -1.339239 -8.548132 0.747681 48.012239 -0.607372 0.000000 -0.000000 -0.000000 -4.283993 23.723369 1.459596 -3.006384 1.292036 17.768635 0.000000 -0.000000 0.000000 -1.362068 8.113312 -17.917891 5.660682 -6.342163 15.231385 
1.659700 0.640146 -2.721947 -1.953420 21.306618 -8.777034 -0.000000 -0.000000 0.000000 2.680577 -1.840462 -5.843837 3.816445 -1.759444 -3.033989 0.000000 0.000000 0.000000 3.751009 -0.784520 -2.924174 1.674881 -3.745864 1.183660 3.134928 -1.046725 -2.824135 -16.853818 -0.211528 8.508760 -57.968753 15.917959 -0.840776 -0.719144 -25.163118 5.625369 3.071627 -1.062082 -1.611478 9.346737 7.822585 2.036222 62.317857 -1.427790 -8.453902 0.763747 48.085950 -0.593653 0.000000 -0.000000 -0.000000 -4.369344 23.532884 1.745593 -3.297869 1.055450 18.212626 0.000000 -0.000000 0.000000 -1.351268 8.661112 -18.228857 5.795074 -6.200162 15.833390 
1.996390 0.639231 -2.795757 -1.657233 19.306652 -8.622177 -0.000000 -0.000000 0.000000 2.846184 -2.044272 -5.911230 3.900753 -1.801931 -2.917691 0.000000 0.000000 0.000000 3.813376 -0.796174 -2.816776 1.650741 -3.514206 1.319432 3.239379 -1.074691 -2.740379 -16.931698 -0.203117 8.388325 -58.094655 15.776678 -0.717623 -0.774027 -25.173945 5.575357 3.158703 -1.106457 -1.573513 9.319254 7.847290 2.041188 62.255532 -1.529877 -8.386306 0.777527 48.096924 -0.580816 0.000000 -0.000000 -0.000000 -4.537519 23.275619 1.908327 -3.561031 0.783089 18.813047 0.000000 -0.000000 0.000000 -1.427171 9.022876 -18.558196 5.868678 -6.149077 16.555054 
2.369735 0.640802 -2.864876 -1.405389 17.495042 -8.495680 -0.000000 -0.000000 0.000000 2.992730 -2.233905 -6.018566 3.983340 -1.840432 -2.816579 0.000000 0.000000 0.000000 3.871130 -0.807329 -2.722344 1.632518 -3.197832 1.451568 3.340576 -1.101983 -2.669432 -17.046532 -0.181869 8.277965 -58.147751 15.648507 -0.549613 -0.830640 -25.143930 5.503332 3.244001 -1.147769 -1.543527 9.282991 7.930998 2.060116 62.196057 -1.645708 -8.355339 0.790599 48.055447 -0.564591 0.000000 -0.000000 -0.000000 -4.769924 22.927640 1.946894 -3.749762 0.529375 19.470251 0.000000 -0.000000 0.000000 -1.567364 9.181095 -18.839208 5.899967 -6.087489 17.296099 
2.773397 0.646699 -2.928742 -1.237914 16.142699 -8.400446 -0.000000 -0.000000 0.000000 3.150512 -2.391784 -6.145276 4.061904 -1.864145 -2.738080 0.000000 0.000000 0.000000 3.928475 -0.812498 -2.647086 1.584911 -2.888294 1.567586 3.438166 -1.121466 -2.613655 -17.170032 -0.160272 8.182875 -58.151872 15.571397 -0.413903 -0.902966 -25.306541 5.396781 3.327427 -1.177179 -1.521468 9.240612 8.075533 2.092196 62.144836 -1.799590 -8.410479 0.804045 47.974908 -0.547106 0.000000 -0.000000 -0.000000 -5.045332 22.558805 1.879238 -3.838890 0.282854 20.093412 0.000000 -0.000000 0.000000 -1.750185 9.151875 -19.023973 5.895071 -6.013732 17.979669 
3.201842 0.659797 -2.987195 -1.152156 15.418192 -8.347750 -0.000000 -0.000000 0.000000 3.320725 -2.512975 -6.294664 4.141023 -1.872013 -2.687370 0.000000 0.000000 0.000000 3.991813 -0.808627 -2.583953 1.505190 -2.706954 1.669935 3.531721 -1.127923 -2.562712 -17.271782 -0.154352 8.105899 -58.143900 15.559469 -0.347642 -0.970429 -25.571417 5.248725 3.411962 -1.189669 -1.506962 9.204156 8.272103 2.134287 62.094309 -1.978093 -8.520704 0.819039 47.860575 -0.527818 0.000000 -0.000000 -0.000000 -5.323489 22.260424 1.690038 -3.838783 0.044202 20.697290 0.000000 -0.000000 0.000000 -1.978258 8.925919 -19.108173 5.864979 -5.941152 18.585197 
3.650048 0.681033 -3.040905 -1.140628 15.187278 -8.330970 -0.000000 -0.000000 0.000000 3.450059 -2.604950 -6.415794 4.220683 -1.861660 -2.646552 0.000000 0.000000 0.000000 4.060001 -0.793933 -2.527369 1.395669 -2.645455 1.755120 3.623873 -1.117031 -2.508924 -17.339510 -0.176568 8.065370 -58.080267 15.620144 -0.340913 -1.026882 -25.868543 5.048098 3.497206 -1.183084 -1.497969 9.195979 8.515345 2.188959 62.038528 -2.159121 -8.723503 0.835218 47.766021 -0.507079 0.000000 -0.000000 -0.000000 -5.622359 21.941819 1.379019 -3.760335 -0.184331 21.282067 0.000000 -0.000000 0.000000 -2.243616 8.508793 -19.115225 5.782401 -5.892513 19.093230 
4.110892 0.709467 -3.090895 -1.173558 15.313676 -8.319956 -0.000000 -0.000000 0.000000 3.494861 -2.666134 -6.483151 4.294675 -1.832864 -2.612120 0.000000 0.000000 0.000000 4.126275 -0.764599 -2.475085 1.276631 -2.603291 1.834040 3.710147 -1.088837 -2.448205 -17.374387 -0.230781 8.033474 -57.998690 15.730547 -0.486616 -1.063061 -26.163839 4.821094 3.576084 -1.151951 -1.488828 9.220821 8.807287 2.249455 61.975388 -2.293141 -8.978160 0.850685 47.785148 -0.487408 0.000000 -0.000000 -0.000000 -5.926297 21.665709 0.983050 -3.602425 -0.400886 21.830574 0.000000 -0.000000 0.000000 -2.550087 7.902609 -19.026728 5.677639 -5.874781 19.451761 
